<svg width="18" height="17" viewBox="0 0 18 17" fill="none" xmlns="http://www.w3.org/2000/svg">
<rect width="18" height="17" rx="2" fill="#70219C"/>
<path d="M13.4375 8.21875C13.4375 5.89844 11.5391 4 9.21875 4C6.89844 4 5 5.89844 5 8.21875C5 10.3281 6.5293 12.0684 8.5332 12.3848V9.43164H7.47852V8.21875H8.5332V7.26953C8.5332 6.21484 9.16602 5.63477 10.1152 5.63477C10.5898 5.63477 11.0645 5.74023 11.0645 5.74023V6.79492H10.5371C10.0098 6.79492 9.85156 7.11133 9.85156 7.42773V8.21875H11.0117L10.8008 9.43164H9.79883V12.4375C11.9082 12.1211 13.4375 10.3281 13.4375 8.21875Z" fill="white"/>
</svg>
