<svg width="18" height="17" viewBox="0 0 18 17" fill="none" xmlns="http://www.w3.org/2000/svg">
<rect width="18" height="17" rx="2" fill="#70219C"/>
<path d="M9.37695 4.79102C10.5371 4.79102 10.6953 4.79102 11.1699 4.79102C11.5918 4.79102 11.8027 4.89648 11.9609 4.94922C12.1719 5.05469 12.3301 5.10742 12.4883 5.26563C12.6465 5.42383 12.752 5.58203 12.8047 5.79297C12.8574 5.95117 12.9102 6.16211 12.9629 6.58398C12.9629 7.05859 12.9629 7.16406 12.9629 8.37695C12.9629 9.58984 12.9629 9.69531 12.9629 10.1699C12.9629 10.5918 12.8574 10.8027 12.8047 10.9609C12.6992 11.1719 12.6465 11.3301 12.4883 11.4883C12.3301 11.6465 12.1719 11.752 11.9609 11.8047C11.8027 11.8574 11.5918 11.9102 11.1699 11.9629C10.6953 11.9629 10.5898 11.9629 9.37695 11.9629C8.16406 11.9629 8.05859 11.9629 7.58398 11.9629C7.16211 11.9629 6.95117 11.8574 6.79297 11.8047C6.58203 11.6992 6.42383 11.6465 6.26563 11.4883C6.10742 11.3301 6.00195 11.1719 5.94922 10.9609C5.89648 10.8027 5.84375 10.5918 5.79102 10.1699C5.79102 9.69531 5.79102 9.58984 5.79102 8.37695C5.79102 7.16406 5.79102 7.05859 5.79102 6.58398C5.79102 6.16211 5.89648 5.95117 5.94922 5.79297C6.05469 5.58203 6.10742 5.42383 6.26563 5.26563C6.42383 5.10742 6.58203 5.00195 6.79297 4.94922C6.95117 4.89648 7.16211 4.84375 7.58398 4.79102C8.05859 4.79102 8.2168 4.79102 9.37695 4.79102ZM9.37695 4C8.16406 4 8.05859 4 7.58398 4C7.10938 4 6.79297 4.10547 6.5293 4.21094C6.26563 4.31641 6.00195 4.47461 5.73828 4.73828C5.47461 5.00195 5.36914 5.21289 5.21094 5.5293C5.10547 5.79297 5.05273 6.10938 5 6.58398C5 7.05859 5 7.2168 5 8.37695C5 9.58984 5 9.69531 5 10.1699C5 10.6445 5.10547 10.9609 5.21094 11.2246C5.31641 11.4883 5.47461 11.752 5.73828 12.0156C6.00195 12.2793 6.21289 12.3848 6.5293 12.543C6.79297 12.6484 7.10938 12.7012 7.58398 12.7539C8.05859 12.7539 8.2168 12.7539 9.37695 12.7539C10.5371 12.7539 10.6953 12.7539 11.1699 12.7539C11.6445 12.7539 11.9609 12.6484 12.2246 12.543C12.4883 12.4375 12.752 12.2793 13.0156 12.0156C13.2793 11.752 13.3848 11.541 13.543 11.2246C13.6484 10.9609 13.7012 10.6445 13.7539 10.1699C13.7539 9.69531 13.7539 9.53711 13.7539 8.37695C13.7539 7.2168 13.7539 7.05859 13.7539 6.58398C13.7539 6.10938 13.6484 5.79297 13.543 5.5293C13.4375 5.26563 13.2793 5.00195 13.0156 4.73828C12.752 4.47461 12.541 4.36914 12.2246 4.21094C11.9609 4.10547 11.6445 4.05273 11.1699 4C10.6953 4 10.5898 4 9.37695 4Z" fill="white"/>
<path d="M9.37695 6.10938C8.11133 6.10938 7.10938 7.11133 7.10938 8.37695C7.10938 9.64258 8.11133 10.6445 9.37695 10.6445C10.6426 10.6445 11.6445 9.64258 11.6445 8.37695C11.6445 7.11133 10.6426 6.10938 9.37695 6.10938ZM9.37695 9.85352C8.58594 9.85352 7.90039 9.2207 7.90039 8.37695C7.90039 7.58594 8.5332 6.90039 9.37695 6.90039C10.168 6.90039 10.8535 7.5332 10.8535 8.37695C10.8535 9.16797 10.168 9.85352 9.37695 9.85352Z" fill="white"/>
<path d="M11.6973 6.58398C11.9885 6.58398 12.2246 6.34788 12.2246 6.05664C12.2246 5.7654 11.9885 5.5293 11.6973 5.5293C11.406 5.5293 11.1699 5.7654 11.1699 6.05664C11.1699 6.34788 11.406 6.58398 11.6973 6.58398Z" fill="white"/>
</svg>
