<svg width="18" height="17" viewBox="0 0 18 17" fill="none" xmlns="http://www.w3.org/2000/svg">
<rect width="18" height="17" rx="2" fill="#70219C"/>
<path d="M6.89844 12.4375H5.10547V6.79492H6.89844V12.4375ZM6.00195 6.00391C5.42188 6.00391 5 5.58203 5 5.00195C5 4.42187 5.47461 4 6.00195 4C6.58203 4 7.00391 4.42187 7.00391 5.00195C7.00391 5.58203 6.58203 6.00391 6.00195 6.00391ZM13.4375 12.4375H11.6445V9.37891C11.6445 8.48242 11.2754 8.21875 10.748 8.21875C10.2207 8.21875 9.69336 8.64062 9.69336 9.43164V12.4375H7.90039V6.79492H9.58789V7.58594C9.74609 7.2168 10.3789 6.63672 11.2754 6.63672C12.2773 6.63672 13.332 7.2168 13.332 8.95703V12.4375H13.4375Z" fill="white"/>
</svg>
